PathFileType	4	(X/Y/Z)	./resultDataOpenSim/trcMotMarkerGrf/sub10/qtm-03-07.trc
DataRate	CameraRate	NumFrames	NumMarkers	Units	OrigDataRate	OrigDataStartFrame	OrigNumFrames
250.000000	250.000000	4	24	m	250.000000	1	517
Frame#	Time	L.Toe.Tip			R.Toe.Tip			L.Ankle.Lat			R.Ankle.Lat			L.Ankle.Med			R.Ankle.Med			L.Heel			R.Heel			L.Knee.Lat			R.Knee.Lat			L.Knee.Med			R.Knee.Med			L.Thigh.Upper			R.Thigh.Upper			L.ASIS			R.ASIS			V.Sacral			L.Acromium			R.Acromium			C7			L.Elbow			R.Elbow			L.Wrist.Lat			R.Wrist.Lat
		X1	Y1	Z1	X2	Y2	Z2	X3	Y3	Z3	X4	Y4	Z4	X5	Y5	Z5	X6	Y6	Z6	X7	Y7	Z7	X8	Y8	Z8	X9	Y9	Z9	X10	Y10	Z10	X11	Y11	Z11	X12	Y12	Z12	X13	Y13	Z13	X14	Y14	Z14	X15	Y15	Z15	X16	Y16	Z16	X17	Y17	Z17	X18	Y18	Z18	X19	Y19	Z19	X20	Y20	Z20	X21	Y21	Z21	X22	Y22	Z22	X23	Y23	Z23	X24	Y24	Z24

1	0	-1.4704017	0.039299737	-0.14139777	-0.99846026	0.08756657	0.030191422	-1.6015266	0.063035801	-0.17518188	-1.1357511	0.065569005	0.033842426	-1.6049558	0.086279535	-0.091678855	-1.1103036	0.10280677	-0.041240796	-1.6753968	0.036907856	-0.14356977	-1.1660927	0.02890137	-0.030183083	-1.4716099	0.42983169	-0.19885005	-1.2149329	0.45695759	0.07638986	-1.478363	0.40765572	-0.078088394	-1.1928621	0.46743467	-0.05199845	-1.3907692	0.81663038	-0.25314182	-1.3692756	0.84472887	0.12944627	-1.3195004	0.9220084	-0.19326217	-1.3047997	0.93703897	0.052858452	-1.511783	0.94337763	-0.054695114	-1.3316528	1.3889966	-0.23462895	-1.3724448	1.4029301	0.085043994	-1.425674	1.4325459	-0.088167347	-1.4093432	1.051234	-0.30415821	-1.495977	1.0738137	0.1131224	-1.2471028	0.87144088	-0.24513239	-1.409826	0.85967115	0.19139559
2	0.004	-1.4702553	0.039214674	-0.14143901	-0.9867884	0.090352262	0.029940848	-1.6013776	0.063461897	-0.17495593	-1.1238629	0.06590543	0.034919596	-1.6046836	0.086349306	-0.091453129	-1.0993753	0.10363641	-0.040396432	-1.6754068	0.03721299	-0.14200942	-1.1538764	0.028775713	-0.028609315	-1.4696792	0.42918494	-0.1986914	-1.2096041	0.45560108	0.07768648	-1.4763095	0.40709711	-0.077731023	-1.1885353	0.4661842	-0.051137055	-1.3874323	0.81575667	-0.25296941	-1.3641563	0.84381048	0.12978467	-1.3157889	0.92111909	-0.19331114	-1.300318	0.93617565	0.05275268	-1.507742	0.94210367	-0.054080772	-1.3276256	1.3879414	-0.23451456	-1.3680326	1.4016809	0.085115623	-1.4216839	1.4315331	-0.0880726	-1.4051034	1.0501827	-0.30444668	-1.4926523	1.0730172	0.11303755	-1.2427391	0.87070693	-0.2447065	-1.4079729	0.85849386	0.19213808
3	0.008	-1.4703959	0.039102565	-0.14118749	-0.97519878	0.093155382	0.029894995	-1.6012255	0.06391079	-0.17474054	-1.1120331	0.066264702	0.036032578	-1.6043985	0.086422616	-0.091208345	-1.0885763	0.10450683	-0.039534347	-1.6754124	0.037531884	-0.14049546	-1.1417964	0.028689914	-0.027118135	-1.4677222	0.42854626	-0.19852954	-1.204575	0.45440741	0.078913971	-1.4741601	0.40653089	-0.077417333	-1.1842109	0.46493519	-0.050224102	-1.3840284	0.81488151	-0.25278615	-1.3592254	0.84283229	0.13008906	-1.3120634	0.92020337	-0.19335192	-1.2958546	0.9353256	0.05266813	-1.5036976	0.94083725	-0.053459635	-1.3235719	1.3868721	-0.23438504	-1.3637311	1.4004495	0.085252264	-1.4176656	1.4305037	-0.087907618	-1.4008834	1.0491268	-0.3046777	-1.4892938	1.0721068	0.11289916	-1.2383678	0.86995137	-0.24427941	-1.4062103	0.85735016	0.19288797
4	0.012	-1.4707818	0.038982835	-0.14070359	-0.96376027	0.095956476	0.030111059	-1.6010766	0.064317101	-0.17455794	-1.100331	0.066676768	0.037193414	-1.6040906	0.086495426	-0.090944957	-1.0779862	0.10542444	-0.038634271	-1.675404	0.037868719	-0.1393245	-1.1298785	0.028700165	-0.025660557	-1.4657144	0.42791808	-0.19835862	-1.1998259	0.4533967	0.080092648	-1.4716871	0.40598191	-0.077235764	-1.1798924	0.46367909	-0.049237964	-1.3805209	0.81399234	-0.25257678	-1.3544568	0.84180025	0.13036453	-1.3083198	0.9192448	-0.19338223	-1.2913877	0.93448759	0.05261326	-1.4996325	0.93958209	-0.05282781	-1.319494	1.3857896	-0.23422988	-1.3595375	1.399233	0.085445774	-1.4136034	1.4294551	-0.087667038	-1.3966627	1.0480757	-0.30481641	-1.4858792	1.0710172	0.11267875	-1.2339879	0.86915687	-0.24385821	-1.4045171	0.85625096	0.19366661
